<?xml version="1.0" encoding="utf-8"?>
<!-- Generator: Adobe Illustrator 28.0.0, SVG Export Plug-In . SVG Version: 6.00 Build 0)  -->
<svg version="1.1" id="Layer_1" xmlns="http://www.w3.org/2000/svg" xmlns:xlink="http://www.w3.org/1999/xlink" x="0px" y="0px"
	 viewBox="0 0 317.4 97.6" style="enable-background:new 0 0 317.4 97.6;" xml:space="preserve">
<style type="text/css">
	.st0{fill:#FFFFFF;}
</style>
<g>
	<path class="st0" d="M63.9,37c-0.6-3.5-3.6-13.8-16.3-13.8c-14.3,0-18.8,13.1-18.8,25.6s4.6,25.6,18.8,25.6
		c10.4,0,14.6-6.9,16.4-15.6h28.8c0,18.9-17.7,38.8-44.5,38.8C18.2,97.6,0,76.4,0,48.8C0,20.4,19.9,0,48.4,0
		c24.1,0,41.4,13.5,44.1,37H63.9z"/>
	<rect x="252" y="27.6" class="st0" width="25.8" height="67.8"/>
	<rect x="291.6" y="2.2" class="st0" width="25.8" height="93.2"/>
	<polygon class="st0" points="252,25.1 252,2.2 278.9,2.2 	"/>
	<path class="st0" d="M196.9,66.2c0.7,8.5,5.5,14.3,13.5,14.3c5.2,0,10.1-2.7,11.7-6.6H245c-4.6,15-19.7,23.4-34.1,23.4
		c-23,0-38.8-14.2-38.8-36.7c0-20.4,14.6-37.1,37-37.1c25.8,0,37.8,18.1,37.8,37.1c0,1.9-0.2,3.8-0.6,5.6
		C246.3,66.2,196.9,66.2,196.9,66.2z M222.2,52.6c0-6.6-4.8-12-11.5-12c-8,0-12.5,4.3-13.7,12H222.2z"/>
	<path class="st0" d="M123.2,33.2c4.8-4.3,11.4-7.3,20.6-7.3c12.7,0,24.1,7.4,24.1,23v46.4H142V59.9c0-7.8-1.4-13.3-9-13.3
		c-4.4,0-9.9,2.9-9.9,13.4v35.4H97.4V2.2h25.8V33.2z"/>
	<path class="st0" d="M63.9,37c-0.6-3.5-3.6-13.8-16.3-13.8c-14.3,0-18.8,13.1-18.8,25.6s4.6,25.6,18.8,25.6
		c10.4,0,14.6-6.9,16.4-15.6h28.8c0,18.9-17.7,38.8-44.5,38.8C18.2,97.6,0,76.4,0,48.8C0,20.4,19.9,0,48.4,0
		c24.1,0,41.4,13.5,44.1,37H63.9z"/>
	<rect x="252" y="27.6" class="st0" width="25.8" height="67.8"/>
	<rect x="291.6" y="2.2" class="st0" width="25.8" height="93.2"/>
	<polygon class="st0" points="252,25.1 252,2.2 278.9,2.2 	"/>
	<path class="st0" d="M196.9,66.2c0.7,8.5,5.5,14.3,13.5,14.3c5.2,0,10.1-2.7,11.7-6.6H245c-4.6,15-19.7,23.4-34.1,23.4
		c-23,0-38.8-14.2-38.8-36.7c0-20.4,14.6-37.1,37-37.1c25.8,0,37.8,18.1,37.8,37.1c0,1.9-0.2,3.8-0.6,5.6
		C246.3,66.2,196.9,66.2,196.9,66.2z M222.2,52.6c0-6.6-4.8-12-11.5-12c-8,0-12.5,4.3-13.7,12H222.2z"/>
	<path class="st0" d="M123.2,33.2c4.8-4.3,11.4-7.3,20.6-7.3c12.7,0,24.1,7.4,24.1,23v46.4H142V59.9c0-7.8-1.4-13.3-9-13.3
		c-4.4,0-9.9,2.9-9.9,13.4v35.4H97.4V2.2h25.8V33.2z"/>
</g>
</svg>
