<svg width="512" height="512" version="1.1" xmlns="http://www.w3.org/2000/svg" desc="Created with imagetracer.js version 1.2.6" ><path fill="rgb(37,35,52)" stroke="rgb(37,35,52)" stroke-width="1" opacity="0.9764705882352941" d="M 207.5 42 L 233.5 42 L 256.5 46 Q 273 50.5 282 62.5 L 282.5 64 L 292.5 64 L 309.5 70 L 327 85.5 Q 340 101 348 121.5 L 353 138.5 L 354 165.5 L 353 166.5 L 352 180.5 L 347 201.5 Q 352.3 207.2 354 216.5 L 354 231.5 L 352 240 L 372.5 241 L 397.5 248 Q 422.5 258.5 439 277.5 Q 455.2 294.8 463 320.5 L 467 340.5 L 467 363.5 L 463 383.5 L 459 394.5 Q 453 409.5 443 420.5 L 443 422.5 L 466 444.5 Q 469.3 448.2 468 456.5 L 462.5 463 Q 459.8 465.8 453.5 465 L 448.5 463 L 424.5 439 Q 410.8 451.3 391.5 458 L 370.5 463 L 351.5 464 L 350.5 463 L 340.5 463 L 329.5 461 L 311.5 455 Q 288.1 444.4 272 426.5 Q 254.9 408.1 247 380.5 L 244 365.5 L 244 338.5 Q 252.3 290.8 283.5 266 L 302.5 253 L 321 244.5 L 327 234.5 L 329 223.5 L 327 216.5 L 320 205.5 L 320 199.5 L 323 192.5 L 327 175.5 Q 325.5 170 328 168.5 L 328 143.5 Q 320.5 112 299.5 94 L 292.5 90 Q 281.6 91.4 274.5 89 Q 266.8 85.8 262 79.5 L 257.5 74 L 248.5 70 L 237.5 68 L 200.5 68 L 199.5 69 L 188.5 70 L 175.5 74 Q 158 81 147 94.5 L 137 110.5 L 129 135.5 L 128 146.5 L 127 147.5 L 127 175.5 L 130 190.5 L 135 202.5 L 135 208.5 L 128 221.5 L 128 230.5 L 133 242.5 L 143 256 L 147 258.5 L 154 269.5 Q 159.5 287.5 168 302.5 L 180.5 317 L 188 322.5 Q 191.9 328.6 190 340.5 Q 186.8 359.3 173.5 368 Q 166.7 373.7 156.5 376 L 134.5 379 L 115.5 386 Q 97.2 394.7 85 409.5 L 74 429.5 L 71 444.5 L 71 454.5 L 66.5 461 Q 63.5 464 57.5 464 Q 50.9 463.1 48 458.5 L 46 454.5 L 46 438.5 Q 52.8 399.8 78.5 380 Q 92.2 368.7 109.5 361 L 134.5 353 L 151.5 351 Q 159.4 348.9 163 342.5 L 164 336.5 Q 153.3 327.7 146 315.5 L 129 276.5 Q 117.6 266.9 110 253.5 L 103 235.5 L 102 219.5 L 108 202.5 L 105 195.5 L 102 180.5 L 101 154.5 L 102 153.5 L 102 142.5 L 105 125.5 L 112 104.5 Q 121.6 82.1 138.5 67 Q 149.6 57.1 164.5 51 L 184.5 45 L 195.5 44 L 196.5 43 L 206.5 43 L 207.5 42 Z M 346 266 L 331 269 L 323 272 L 301 285 Q 289 294 281 308 L 271 332 L 270 343 L 269 344 L 269 361 L 272 376 Q 278 394 289 408 Q 308 432 346 438 L 366 438 L 377 436 Q 398 430 413 417 Q 428 404 436 384 L 440 371 L 441 356 L 442 355 L 441 339 L 436 321 Q 430 306 421 296 Q 407 278 384 270 L 366 266 L 346 266 Z " /><path fill="rgb(0,0,0)" stroke="rgb(0,0,0)" stroke-width="1" opacity="0" d="M 0 0 L 512 0 L 512 512 L 0 512 L 0 0 Z M 208 42 L 207 43 L 197 43 L 196 44 L 185 45 L 165 51 Q 150 57 139 67 Q 122 82 112 105 L 105 126 L 102 143 L 102 154 L 101 155 L 102 181 L 105 196 L 108 203 L 102 220 L 103 236 L 110 254 Q 118 267 129 277 L 146 316 Q 153 328 164 337 L 163 343 Q 159 349 152 351 L 135 353 L 110 361 Q 92 369 79 380 Q 53 400 46 439 L 46 455 L 48 459 Q 51 463 58 464 Q 64 464 67 461 L 71 455 L 71 445 L 74 430 L 85 410 Q 97 395 116 386 L 135 379 L 157 376 Q 167 374 174 368 Q 187 359 190 341 Q 192 329 188 323 L 181 317 L 168 303 Q 159 288 154 270 L 147 259 L 143 256 L 133 243 L 128 231 L 128 222 L 135 209 L 135 203 L 130 191 L 127 176 L 127 148 L 128 147 L 129 136 L 137 111 L 147 95 Q 158 81 176 74 L 189 70 L 200 69 L 201 68 L 238 68 L 249 70 L 258 74 L 262 80 Q 267 86 275 89 Q 282 91 293 90 L 300 94 Q 320 112 328 144 L 328 169 Q 326 170 327 176 L 323 193 L 320 200 L 320 206 L 327 217 L 329 224 L 327 235 L 321 245 L 303 253 L 284 266 Q 252 291 244 339 L 244 366 L 247 381 Q 255 408 272 427 Q 288 444 312 455 L 330 461 L 341 463 L 351 463 L 352 464 L 371 463 L 392 458 Q 411 451 425 439 L 449 463 L 454 465 Q 460 466 463 463 L 468 457 Q 469 448 466 445 L 443 423 L 443 421 Q 453 410 459 395 L 463 384 L 467 364 L 467 341 L 463 321 Q 455 295 439 278 Q 422 259 398 248 L 373 241 L 352 240 L 354 232 L 354 217 Q 352 207 347 202 L 352 181 L 353 167 L 354 166 L 353 139 L 348 122 Q 340 101 327 86 L 310 70 L 293 64 L 283 64 L 282 63 Q 273 51 257 46 L 234 42 L 208 42 Z " /><path fill="rgb(0,0,0)" stroke="rgb(0,0,0)" stroke-width="1" opacity="0" d="M 345.5 266 L 365.5 266 L 383.5 270 Q 406.5 278.5 421 295.5 Q 430.3 306.2 436 320.5 L 441 338.5 L 442 354.5 L 441 355.5 L 440 370.5 L 436 383.5 Q 427.7 403.7 412.5 417 Q 398 430 376.5 436 L 365.5 438 L 345.5 438 Q 308.2 431.8 289 407.5 Q 277.7 394.3 272 375.5 L 269 360.5 L 269 343.5 L 270 342.5 L 271 331.5 L 281 307.5 Q 288.9 294.4 300.5 285 L 322.5 272 L 330.5 269 L 345.5 266 Z " /></svg>