<svg xmlns="http://www.w3.org/2000/svg" xmlns:xlink="http://www.w3.org/1999/xlink" version="1.1" width="256" height="256" viewBox="0 0 256 256" xml:space="preserve">

<defs>
</defs>
<g style="stroke: none; stroke-width: 0; stroke-dasharray: none; stroke-linecap: butt; stroke-linejoin: miter; stroke-miterlimit: 10; fill: none; fill-rule: nonzero; opacity: 1;" transform="translate(1.4065934065934016 1.4065934065934016) scale(2.81 2.81)" >
	<path d="M 45 0 C 28.967 0 14.902 8.392 6.932 21.015 c 2.729 1.97 6.069 3.145 9.693 3.145 h 32.399 c 17.08 0 32.123 8.704 40.948 21.915 C 89.981 45.716 90 45.36 90 45 C 90 20.147 69.853 0 45 0 z" style="stroke: none; stroke-width: 1; stroke-dasharray: none; stroke-linecap: butt; stroke-linejoin: miter; stroke-miterlimit: 10; fill: rgb(70,78,87); fill-rule: nonzero; opacity: 1;" transform=" matrix(1 0 0 1 0 0) " stroke-linecap="round" />
	<path d="M 90 45 c 0 -1.207 -0.062 -2.399 -0.155 -3.583 C 81.002 27.735 66.02 20.885 49.024 20.885 H 16.625 c -3.159 0 -6.101 -0.494 -8.614 -1.504 C 3.387 26.046 0.51 34.014 0.063 42.629 c 9.023 11.127 22.794 18.247 38.236 18.247 h 0.744 c 9.038 0 13.101 3.942 13.329 12.925 c 0.004 -0.143 0.022 -0.282 0.022 -0.426 c 0 8.417 -3.516 15.355 -11.172 16.456 C 42.469 89.934 43.726 90 45 90 C 69.853 90 90 69.853 90 45 z" style="stroke: none; stroke-width: 1; stroke-dasharray: none; stroke-linecap: butt; stroke-linejoin: miter; stroke-miterlimit: 10; fill: rgb(59,66,73); fill-rule: nonzero; opacity: 1;" transform=" matrix(1 0 0 1 0 0) " stroke-linecap="round" />
	<path d="M 41.27 89.834 c 7.988 -1.072 14.169 -7.802 14.378 -16.034 c -0.228 -8.983 -7.566 -16.2 -16.604 -16.2 h -0.744 c -15.296 0 -28.947 -6.992 -37.973 -17.938 C 0.119 41.414 0 43.193 0 45 C 0 68.595 18.164 87.936 41.27 89.834 z" style="stroke: none; stroke-width: 1; stroke-dasharray: none; stroke-linecap: butt; stroke-linejoin: miter; stroke-miterlimit: 10; fill: rgb(52,58,64); fill-rule: nonzero; opacity: 1;" transform=" matrix(1 0 0 1 0 0) " stroke-linecap="round" />
	<path d="M 8.009 18.989 c 0 0 0.759 0.356 1.285 1.694 c 0 0 0.68 2.066 3.9 1.366 c 0.003 0.614 0.009 1.206 0.012 1.627 c 0.002 0.21 0.173 0.379 0.383 0.379 h 4.98 c 0.211 0 0.382 -0.169 0.383 -0.38 c 0.004 -0.593 0.011 -1.543 0.011 -2.648 c 0 -1.08 -0.37 -1.785 -0.785 -2.144 c 2.578 -0.287 5.286 -1.266 5.286 -5.712 c 0 -1.264 -0.449 -2.297 -1.192 -3.108 c 0.12 -0.292 0.517 -1.469 -0.114 -3.064 c 0 0 -0.971 -0.311 -3.18 1.187 c -0.925 -0.257 -1.916 -0.385 -2.9 -0.39 c -0.984 0.005 -1.974 0.133 -2.898 0.39 C 10.97 6.689 9.997 7 9.997 7 c -0.629 1.595 -0.232 2.772 -0.112 3.064 c -0.741 0.811 -1.193 1.843 -1.193 3.108 c 0 4.436 2.703 5.429 5.275 5.721 c -0.331 0.289 -0.631 0.8 -0.735 1.548 c -0.661 0.296 -2.337 0.807 -3.369 -0.962 c 0 0 -0.612 -1.111 -1.775 -1.193 C 8.088 18.285 6.959 18.27 8.009 18.989 z" style="stroke: none; stroke-width: 1; stroke-dasharray: none; stroke-linecap: butt; stroke-linejoin: miter; stroke-miterlimit: 10; fill: rgb(255,255,255); fill-rule: nonzero; opacity: 1;" transform=" matrix(2.81 0 0 2.81 1.4065934065934016 1.4065934065934016) " stroke-linecap="round" />
</g>
</svg>