<svg xmlns="http://www.w3.org/2000/svg" xmlns:xlink="http://www.w3.org/1999/xlink" version="1.1" width="256" height="256" viewBox="0 0 256 256" xml:space="preserve">

<defs>
</defs>
<g style="stroke: none; stroke-width: 0; stroke-dasharray: none; stroke-linecap: butt; stroke-linejoin: miter; stroke-miterlimit: 10; fill: none; fill-rule: nonzero; opacity: 1;" transform="translate(1.4065934065934016 1.4065934065934016) scale(2.81 2.81)" >
	<path d="M 85.533 78.45 H 4.467 C 2 78.45 0 76.45 0 73.983 V 16.017 c 0 -2.467 2 -4.467 4.467 -4.467 h 81.065 c 2.467 0 4.467 2 4.467 4.467 v 57.966 C 90 76.45 88 78.45 85.533 78.45 z" style="stroke: none; stroke-width: 1; stroke-dasharray: none; stroke-linecap: butt; stroke-linejoin: miter; stroke-miterlimit: 10; fill: rgb(0,99,242); fill-rule: nonzero; opacity: 1;" transform=" matrix(1 0 0 1 0 0) " stroke-linecap="round" />
	<path d="M 90 26.804 H 0 V 16.017 c 0 -2.467 2 -4.467 4.467 -4.467 h 81.065 c 2.467 0 4.467 2 4.467 4.467 V 26.804 z" style="stroke: none; stroke-width: 1; stroke-dasharray: none; stroke-linecap: butt; stroke-linejoin: miter; stroke-miterlimit: 10; fill: rgb(0,58,160); fill-rule: nonzero; opacity: 1;" transform=" matrix(1 0 0 1 0 0) " stroke-linecap="round" />
	<path d="M 58.453 31.416 c -0.952 0 -1.806 -0.548 -2.243 -1.393 c -0.087 -0.169 -0.179 -0.336 -0.275 -0.502 c -0.096 -0.166 -0.195 -0.329 -0.297 -0.489 c -0.514 -0.802 -0.561 -1.815 -0.085 -2.639 c 0.691 -1.198 0.281 -2.729 -0.916 -3.42 l -3.316 -1.915 c -1.198 -0.691 -2.729 -0.281 -3.42 0.916 l -0.001 0.001 c -0.469 0.812 -1.352 1.291 -2.289 1.245 c -0.407 -0.02 -0.816 -0.02 -1.225 0 c -0.935 0.045 -1.817 -0.435 -2.285 -1.246 l 0 -0.001 c -0.691 -1.198 -2.223 -1.608 -3.42 -0.916 l -3.316 1.915 c -1.198 0.691 -1.608 2.223 -0.916 3.42 l 0 0.001 c 0.468 0.811 0.443 1.814 -0.064 2.601 c -0.222 0.344 -0.426 0.699 -0.612 1.061 c -0.429 0.834 -1.285 1.36 -2.223 1.36 h -0.001 c -1.383 0 -2.504 1.121 -2.504 2.504 v 3.829 c 0 1.383 1.121 2.504 2.504 2.504 l 0 0 c 0.952 0 1.806 0.548 2.243 1.393 c 0.087 0.169 0.179 0.336 0.274 0.502 c 0.096 0.166 0.195 0.329 0.298 0.489 c 0.514 0.801 0.561 1.815 0.085 2.639 c -0.691 1.198 -0.281 2.729 0.916 3.42 l 3.316 1.915 c 1.198 0.691 2.729 0.281 3.42 -0.916 l 0.001 -0.001 c 0.469 -0.812 1.352 -1.291 2.289 -1.245 c 0.407 0.02 0.816 0.02 1.225 0 c 0.935 -0.045 1.817 0.435 2.285 1.246 l 0 0.001 c 0.691 1.197 2.223 1.608 3.42 0.916 l 3.316 -1.915 c 1.197 -0.691 1.608 -2.223 0.916 -3.42 l 0 -0.001 c -0.468 -0.811 -0.443 -1.814 0.064 -2.601 c 0.222 -0.344 0.426 -0.699 0.612 -1.061 c 0.429 -0.834 1.285 -1.36 2.223 -1.36 h 0.001 c 1.383 0 2.504 -1.121 2.504 -2.504 V 33.92 C 60.957 32.537 59.836 31.416 58.453 31.416 z M 48.136 41.267 c -3 1.732 -6.836 0.704 -8.568 -2.296 s -0.704 -6.836 2.296 -8.568 c 3 -1.732 6.836 -0.704 8.568 2.296 C 52.164 35.699 51.136 39.535 48.136 41.267 z" style="stroke: none; stroke-width: 1; stroke-dasharray: none; stroke-linecap: butt; stroke-linejoin: miter; stroke-miterlimit: 10; fill: rgb(250,180,0); fill-rule: nonzero; opacity: 1;" transform=" matrix(1 0 0 1 0 0) " stroke-linecap="round" />
	<path d="M 39.711 72.323 c -0.552 0 -1 -0.447 -1 -1 V 60.775 c 0 -1.047 -0.852 -1.899 -1.899 -1.899 h -1.707 c -1.047 0 -1.899 0.853 -1.899 1.899 v 10.548 c 0 0.553 -0.448 1 -1 1 s -1 -0.447 -1 -1 V 60.775 c 0 -2.15 1.75 -3.899 3.899 -3.899 h 1.707 c 2.15 0 3.899 1.749 3.899 3.899 v 10.548 C 40.711 71.876 40.263 72.323 39.711 72.323 z" style="stroke: none; stroke-width: 1; stroke-dasharray: none; stroke-linecap: butt; stroke-linejoin: miter; stroke-miterlimit: 10; fill: rgb(240,240,240); fill-rule: nonzero; opacity: 1;" transform=" matrix(1 0 0 1 0 0) " stroke-linecap="round" />
	<path d="M 39.711 65.6 h -7.506 c -0.552 0 -1 -0.447 -1 -1 s 0.448 -1 1 -1 h 7.506 c 0.552 0 1 0.447 1 1 S 40.263 65.6 39.711 65.6 z" style="stroke: none; stroke-width: 1; stroke-dasharray: none; stroke-linecap: butt; stroke-linejoin: miter; stroke-miterlimit: 10; fill: rgb(240,240,240); fill-rule: nonzero; opacity: 1;" transform=" matrix(1 0 0 1 0 0) " stroke-linecap="round" />
	<path d="M 50.007 65.6 h -4.629 c -0.552 0 -1 -0.447 -1 -1 v -6.724 c 0 -0.553 0.448 -1 1 -1 h 4.629 c 1.969 0 3.57 1.603 3.57 3.571 v 1.581 C 53.577 63.997 51.976 65.6 50.007 65.6 z M 46.378 63.6 h 3.629 c 0.866 0 1.57 -0.705 1.57 -1.571 v -1.581 c 0 -0.866 -0.704 -1.571 -1.57 -1.571 h -3.629 V 63.6 z" style="stroke: none; stroke-width: 1; stroke-dasharray: none; stroke-linecap: butt; stroke-linejoin: miter; stroke-miterlimit: 10; fill: rgb(240,240,240); fill-rule: nonzero; opacity: 1;" transform=" matrix(1 0 0 1 0 0) " stroke-linecap="round" />
	<path d="M 45.378 72.323 c -0.552 0 -1 -0.447 -1 -1 V 64.6 c 0 -0.553 0.448 -1 1 -1 s 1 0.447 1 1 v 6.724 C 46.378 71.876 45.93 72.323 45.378 72.323 z" style="stroke: none; stroke-width: 1; stroke-dasharray: none; stroke-linecap: butt; stroke-linejoin: miter; stroke-miterlimit: 10; fill: rgb(240,240,240); fill-rule: nonzero; opacity: 1;" transform=" matrix(1 0 0 1 0 0) " stroke-linecap="round" />
	<path d="M 57.795 72.323 c -0.553 0 -1 -0.447 -1 -1 V 57.876 c 0 -0.553 0.447 -1 1 -1 s 1 0.447 1 1 v 13.447 C 58.795 71.876 58.348 72.323 57.795 72.323 z" style="stroke: none; stroke-width: 1; stroke-dasharray: none; stroke-linecap: butt; stroke-linejoin: miter; stroke-miterlimit: 10; fill: rgb(240,240,240); fill-rule: nonzero; opacity: 1;" transform=" matrix(1 0 0 1 0 0) " stroke-linecap="round" />
	<path d="M 9.145 20.177 H 6.193 c -0.552 0 -1 -0.448 -1 -1 s 0.448 -1 1 -1 h 2.951 c 0.552 0 1 0.448 1 1 S 9.697 20.177 9.145 20.177 z" style="stroke: none; stroke-width: 1; stroke-dasharray: none; stroke-linecap: butt; stroke-linejoin: miter; stroke-miterlimit: 10; fill: rgb(250,180,0); fill-rule: nonzero; opacity: 1;" transform=" matrix(1 0 0 1 0 0) " stroke-linecap="round" />
	<path d="M 18.349 20.177 h -2.951 c -0.552 0 -1 -0.448 -1 -1 s 0.448 -1 1 -1 h 2.951 c 0.552 0 1 0.448 1 1 S 18.901 20.177 18.349 20.177 z" style="stroke: none; stroke-width: 1; stroke-dasharray: none; stroke-linecap: butt; stroke-linejoin: miter; stroke-miterlimit: 10; fill: rgb(0,99,242); fill-rule: nonzero; opacity: 1;" transform=" matrix(1 0 0 1 0 0) " stroke-linecap="round" />
	<path d="M 27.553 20.177 h -2.951 c -0.552 0 -1 -0.448 -1 -1 s 0.448 -1 1 -1 h 2.951 c 0.552 0 1 0.448 1 1 S 28.105 20.177 27.553 20.177 z" style="stroke: none; stroke-width: 1; stroke-dasharray: none; stroke-linecap: butt; stroke-linejoin: miter; stroke-miterlimit: 10; fill: rgb(229,53,158); fill-rule: nonzero; opacity: 1;" transform=" matrix(1 0 0 1 0 0) " stroke-linecap="round" />
	<path d="M 83.807 20.177 H 61.87 c -0.553 0 -1 -0.448 -1 -1 s 0.447 -1 1 -1 h 21.937 c 0.553 0 1 0.448 1 1 S 84.359 20.177 83.807 20.177 z" style="stroke: none; stroke-width: 1; stroke-dasharray: none; stroke-linecap: butt; stroke-linejoin: miter; stroke-miterlimit: 10; fill: rgb(240,240,240); fill-rule: nonzero; opacity: 1;" transform=" matrix(1 0 0 1 0 0) " stroke-linecap="round" />
</g>
</svg>